<svg width="67.473mm" height="78.265mm" version="1.1" viewBox="0 0 67.473 78.265" xmlns="http://www.w3.org/2000/svg">
 <g transform="translate(-82.973 -133.11)" display="none">
  <rect x="18.71" y="111.88" width="170.47" height="132.29" display="inline" opacity=".997"/>
  <g transform="matrix(.44122 0 0 .44122 66.658 96.724)" fill="#fff" stroke-width=".066749">
   <path d="m111.88 181.67 0.3152-0.0271 0.043-1.7952-3e-3 0.91789-3e-3 0.91788-0.66749 0.014zm1.3493-0.0401c-0.0183-0.0478-0.0239-0.47586-0.0124-0.95117l0.021-0.86421 0.0145 0.91414 0.0145 0.91415 0.63411 0.05-0.31915 0.012c-0.20993 8e-3 -0.33057-0.0177-0.35253-0.0749zm-12.653-2.2326c-0.083-0.10587-0.0807-0.10823 0.0252-0.0252 0.0643 0.0504 0.11682 0.10295 0.11682 0.11681 0 0.0549-0.0548 0.0196-0.14202-0.0916zm24.172 0.0916c0-0.0139 0.0526-0.0664 0.11681-0.11681 0.10587-0.083 0.10823-0.0807 0.0252 0.0252-0.0872 0.11119-0.14202 0.14655-0.14202 0.0916zm-12.52-2.2776c-4e-5 -0.9178 9e-3 -1.3025 0.0209-0.85493 0.0115 0.44758 0.0116 1.1985 7e-5 1.6687-0.0115 0.47022-0.0209 0.10401-0.021-0.81379zm1.0012 0c-4e-5 -0.9178 9e-3 -1.3025 0.0209-0.85493 0.0115 0.44758 0.0116 1.1985 6e-5 1.6687-0.0115 0.47022-0.0209 0.10401-0.021-0.81379zm-13.454 1.385c-0.08303-0.10586-0.08067-0.10822 0.0252-0.0252 0.06425 0.0504 0.11681 0.10295 0.11681 0.11681 0 0.0549-0.05481 0.0196-0.14201-0.0916zm25.774 0.0916c0-0.0139 0.0526-0.0664 0.11681-0.11681 0.10587-0.083 0.10823-0.0807 0.0252 0.0252-0.0872 0.11119-0.14201 0.14655-0.14201 0.0916zm-13.321-5.7486c-4e-5 -0.9178 9e-3 -1.3025 0.0209-0.85494 0.0115 0.44759 0.0116 1.1985 7e-5 1.6687-0.0115 0.47021-0.0209 0.10401-0.021-0.81379zm1.0012 0c-4e-5 -0.9178 9e-3 -1.3025 0.0209-0.85494 0.0115 0.44759 0.0116 1.1985 6e-5 1.6687-0.0115 0.47021-0.0209 0.10401-0.021-0.81379zm-1.0021-4.0049c-6e-5 -0.73424 0.01-1.0437 0.0217-0.68773 0.012 0.35599 0.012 0.95673 1.3e-4 1.335-0.0119 0.37825-0.0217 0.087-0.0218-0.64725zm1.0012 0c-5e-5 -0.73424 0.01-1.0437 0.0217-0.68773 0.012 0.35599 0.012 0.95673 1.3e-4 1.335-0.0119 0.37825-0.0217 0.087-0.0218-0.64725zm-15.686-1.6354 0.0055-0.30037 1.8358-6e-3 -1.7952 0.043-0.02572 0.28182-0.02572 0.28183 0.0055-0.30037zm30.354 0.0519-0.0112-0.31517-1.8356-0.0412 0.91989-0.0146c1.0214-0.0162 1.0112-0.0208 0.96475 0.4289-0.0254 0.24591-0.0271 0.24335-0.0378-0.0579zm-26.69-0.36884c0.47022-0.0115 1.2211-0.0115 1.6687 6e-5 0.44758 0.0115 0.0629 0.0209-0.85494 0.0209-0.9178-4e-5 -1.284-9e-3 -0.81379-0.021zm4.2719 0c0.47021-0.0115 1.2211-0.0115 1.6687 6e-5 0.44759 0.0115 0.0629 0.0209-0.85493 0.0209-0.9178-4e-5 -1.284-9e-3 -0.81379-0.021zm4.1715 6e-5c0.37825-0.0119 0.979-0.0119 1.335 1.4e-4 0.35599 0.012 0.0465 0.0217-0.68772 0.0217-0.73424-6e-5 -1.0255-0.01-0.64726-0.0218zm4.8727 0c0.37825-0.0119 0.97899-0.0119 1.335 1.4e-4 0.35599 0.012 0.0465 0.0217-0.68773 0.0217-0.73424-6e-5 -1.0255-0.01-0.64725-0.0218zm3.8384-6e-5c0.47022-0.0115 1.2211-0.0115 1.6687 6e-5 0.44758 0.0115 0.0629 0.0209-0.85494 0.0209-0.9178-4e-5 -1.284-9e-3 -0.81379-0.021zm4.2719 0c0.47021-0.0115 1.2211-0.0115 1.6687 6e-5 0.44759 0.0115 0.0629 0.0209-0.85493 0.0209-0.9178-4e-5 -1.284-9e-3 -0.81379-0.021zm-25.091-1.0444c-0.01965-0.0512-0.02376-0.2089-0.0091-0.35043 0.02542-0.24591 0.0271-0.24335 0.03782 0.0579l0.01122 0.31517 1.8356 0.0412-0.91989 0.0146c-0.73528 0.0117-0.92706-4e-3 -0.95562-0.0785zm3.6649 0.0432c0.47022-0.0115 1.2211-0.0115 1.6687 7e-5 0.44758 0.0115 0.0629 0.0209-0.85494 0.0209-0.9178-4e-5 -1.284-9e-3 -0.81379-0.021zm4.2719 0c0.47021-0.0115 1.2211-0.0115 1.6687 7e-5 0.44759 0.0115 0.0629 0.0209-0.85493 0.0209-0.9178-4e-5 -1.284-9e-3 -0.81379-0.021zm4.1715 7e-5c0.37825-0.0119 0.979-0.0119 1.335 1.3e-4 0.35599 0.012 0.0465 0.0217-0.68772 0.0217-0.73424-6e-5 -1.0255-0.01-0.64726-0.0218zm4.8727 0c0.37825-0.0119 0.97899-0.0119 1.335 1.3e-4 0.35599 0.012 0.0465 0.0217-0.68773 0.0217-0.73424-6e-5 -1.0255-0.01-0.64725-0.0218zm3.8384-7e-5c0.47022-0.0115 1.2211-0.0115 1.6687 7e-5 0.44758 0.0115 0.0629 0.0209-0.85494 0.0209-0.9178-4e-5 -1.284-9e-3 -0.81379-0.021zm4.2719 0c0.47021-0.0115 1.2211-0.0115 1.6687 7e-5 0.44759 0.0115 0.0629 0.0209-0.85493 0.0209-0.9178-4e-5 -1.284-9e-3 -0.81379-0.021zm4.3478 9.2e-4 0.89762-0.0215 0.0271-0.31519 0.0271-0.3152-7e-3 0.33374-7e-3 0.33375-1.8358 6e-3 0.89762-0.0215zm-14.753-1.9201c-6e-5 -0.73424 0.01-1.0437 0.0217-0.68773 0.012 0.35599 0.012 0.95673 1.3e-4 1.335-0.0119 0.37825-0.0217 0.087-0.0218-0.64725zm1.0012 0c-5e-5 -0.73424 0.01-1.0437 0.0217-0.68773 0.012 0.35599 0.012 0.95673 1.3e-4 1.335-0.0119 0.37825-0.0217 0.087-0.0218-0.64725zm-1.0003-4.0049c-4e-5 -0.9178 9e-3 -1.3025 0.0209-0.85494 0.0115 0.44759 0.0116 1.1985 7e-5 1.6687-0.0115 0.47021-0.0209 0.10401-0.021-0.81379zm1.0012 0c-4e-5 -0.9178 9e-3 -1.3025 0.0209-0.85494 0.0115 0.44759 0.0116 1.1985 6e-5 1.6687-0.0115 0.47021-0.0209 0.10401-0.021-0.81379zm-1.0012-4.2719c-4e-5 -0.91779 9e-3 -1.3025 0.0209-0.85493 0.0115 0.44758 0.0116 1.1985 7e-5 1.6687-0.0115 0.47022-0.0209 0.10401-0.021-0.81379zm1.0012 0c-4e-5 -0.91779 9e-3 -1.3025 0.0209-0.85493 0.0115 0.44758 0.0116 1.1985 6e-5 1.6687-0.0115 0.47022-0.0209 0.10401-0.0209-0.81379zm-13.512-1.3268c0-0.0139 0.05257-0.0664 0.11681-0.11681 0.10587-0.083 0.10823-0.0807 0.0252 0.0252-0.0872 0.11119-0.14201 0.14654-0.14201 0.0916zm25.89-0.0916c-0.083-0.10587-0.0807-0.10823 0.0252-0.0252 0.0642 0.0504 0.11681 0.10295 0.11681 0.11681 0 0.0549-0.0548 0.0196-0.14201-0.0916zm-25.089-0.70938c0-0.0139 0.0526-0.0664 0.11681-0.11681 0.10587-0.083 0.10823-0.0807 0.0252 0.0252-0.0872 0.11119-0.14201 0.14655-0.14201 0.0916zm24.288-0.0916c-0.083-0.10587-0.0807-0.10823 0.0252-0.0252 0.0643 0.0504 0.11681 0.10295 0.11681 0.11681 0 0.0549-0.0548 0.0196-0.14201-0.0916zm-12.593-1.298-0.0145-0.91414-0.63411-0.05 0.31915-0.012c0.20993-8e-3 0.33057 0.0177 0.35252 0.0749 0.0184 0.0478 0.0239 0.47586 0.0124 0.95118l-0.021 0.8642zm1.0172-0.0369 3e-3 -0.91789 0.66749-0.014-0.63039 0.0542-0.043 1.7952 3e-3 -0.91789z"/>
   <path d="m99.039 181.13c-0.08303-0.10587-0.08067-0.10823 0.0252-0.0252 0.11119 0.0872 0.14655 0.14202 0.09161 0.14202-0.01386 0-0.06643-0.0526-0.11681-0.11681zm27.242 0.0916c0-0.0139 0.0526-0.0664 0.11681-0.11681 0.10587-0.083 0.10823-0.0807 0.0252 0.0252-0.0872 0.11118-0.14201 0.14654-0.14201 0.0916zm-28.243-1.0928c-0.08303-0.10587-0.08067-0.10823 0.0252-0.0252 0.06425 0.0504 0.11681 0.10295 0.11681 0.11681 0 0.0549-0.05481 0.0196-0.14201-0.0916zm29.245 0.0916c0-0.0139 0.0526-0.0664 0.11681-0.11681 0.10586-0.083 0.10822-0.0807 0.0252 0.0252-0.0872 0.11119-0.14201 0.14655-0.14201 0.0916zm-29.303-27.3c0-0.0139 0.05256-0.0664 0.11681-0.11681 0.10587-0.083 0.10823-0.0807 0.0252 0.0252-0.0872 0.11119-0.14201 0.14655-0.14201 0.0916zm29.361-0.0916c-0.083-0.10587-0.0807-0.10823 0.0252-0.0252 0.0642 0.0504 0.11681 0.10295 0.11681 0.11681 0 0.0549-0.0548 0.0196-0.14201-0.0916zm-28.36-0.90962c0-0.0139 0.05256-0.0664 0.11681-0.11681 0.10587-0.083 0.10823-0.0807 0.0252 0.0252-0.0872 0.11118-0.14201 0.14654-0.14201 0.0916zm27.359-0.0916c-0.083-0.10587-0.0807-0.10823 0.0252-0.0252 0.11118 0.0872 0.14654 0.14201 0.0916 0.14201-0.0139 0-0.0664-0.0526-0.11682-0.11681z"/>
   <path d="m98.839 180.93c-0.08303-0.10587-0.08067-0.10823 0.0252-0.0252 0.11119 0.0872 0.14655 0.14201 0.09161 0.14201-0.01386 0-0.06643-0.0526-0.11681-0.11681zm27.643 0.0916c0-0.0139 0.0526-0.0664 0.11681-0.11681 0.10587-0.083 0.10823-0.0807 0.0252 0.0252-0.0872 0.11119-0.14201 0.14654-0.14201 0.0916zm-28.243-0.69235c-0.08303-0.10587-0.08067-0.10823 0.0252-0.0252 0.06425 0.0504 0.11681 0.10295 0.11681 0.11681 0 0.0549-0.05481 0.0196-0.14201-0.0916zm28.844 0.0916c0-0.0139 0.0526-0.0664 0.11681-0.11681 0.10587-0.083 0.10823-0.0807 0.0252 0.0252-0.0872 0.11118-0.14201 0.14654-0.14201 0.0916zm-15.335-9.1673c0.10147-0.0153 0.25165-0.0149 0.33375 9.1e-4 0.0821 0.0158-9.2e-4 0.0284-0.18448 0.0279-0.18356-5.3e-4 -0.25073-0.0135-0.14927-0.0288zm1.6687 0c0.10146-0.0153 0.25165-0.0149 0.33374 9.1e-4 0.0821 0.0158-9.2e-4 0.0284-0.18447 0.0279-0.18356-5.3e-4 -0.25073-0.0135-0.14927-0.0288zm-5.4719-3.9237c5.3e-4 -0.18356 0.0135-0.25073 0.0288-0.14927 0.0153 0.10147 0.0149 0.25165-9e-4 0.33375-0.0159 0.0821-0.0284-9.2e-4 -0.0279-0.18448zm4.2641 0.0203-0.0112-0.31341-0.63411-0.05 0.31915-0.012c0.36259-0.0137 0.40485 0.0364 0.36401 0.43151-0.0256 0.24731-0.027 0.24513-0.0378-0.0561zm1.0179-0.0537 5e-3 -0.30037 0.60074-0.01-0.28017 0.0256c-0.27559 0.0252-0.28058 0.0302-0.30582 0.30582l-0.0256 0.28017 5e-3 -0.30037zm4.2631 0.0334c5.4e-4 -0.18356 0.0135-0.25073 0.0288-0.14927 0.0153 0.10147 0.0149 0.25165-9.1e-4 0.33375-0.0158 0.0821-0.0284-9.2e-4 -0.0279-0.18448zm-5.6128-1.3484 0.31355-0.027 0.0512-0.56034-0.01 0.60074-0.66749 0.014 0.31355-0.027zm1.3486-0.0463c-0.0196-0.0512-0.0238-0.2089-9e-3 -0.35043 0.0256-0.24732 0.027-0.24513 0.0378 0.0561l0.0112 0.3134 0.63411 0.05-0.31915 0.012c-0.22014 8e-3 -0.33024-0.0168-0.35488-0.0811zm-5.2809-0.27401c5.3e-4 -0.18356 0.0135-0.25073 0.0288-0.14927s0.0149 0.25165-9e-4 0.33374c-0.0159 0.0821-0.0284-9.2e-4 -0.0279-0.18447zm9.5451 0c5.4e-4 -0.18356 0.0135-0.25073 0.0288-0.14927s0.0149 0.25165-9.1e-4 0.33374c-0.0158 0.0821-0.0284-9.2e-4 -0.0279-0.18447zm-5.7419-3.9527c0.10147-0.0153 0.25165-0.0149 0.33375 9.1e-4 0.0821 0.0158-9.2e-4 0.0284-0.18448 0.0279-0.18356-5.4e-4 -0.25073-0.0135-0.14927-0.0288zm1.6687 0c0.10146-0.0153 0.25165-0.0149 0.33374 9.1e-4 0.0821 0.0158-9.2e-4 0.0284-0.18447 0.0279-0.18356-5.4e-4 -0.25073-0.0135-0.14927-0.0288zm-15.236-8.9884c0-0.0139 0.05256-0.0664 0.11681-0.11681 0.10587-0.083 0.10823-0.0807 0.0252 0.0252-0.0872 0.11119-0.14201 0.14655-0.14201 0.0916zm28.961-0.0916c-0.083-0.10586-0.0807-0.10822 0.0252-0.0252 0.0643 0.0504 0.11682 0.10295 0.11682 0.11681 0 0.0549-0.0548 0.0196-0.14202-0.0916zm-28.36-0.50913c0-0.0139 0.05256-0.0664 0.11681-0.11681 0.10587-0.083 0.10823-0.0807 0.0252 0.0252-0.0872 0.11119-0.14201 0.14655-0.14201 0.0916zm27.759-0.0916c-0.083-0.10586-0.0807-0.10822 0.0252-0.0252 0.11119 0.0872 0.14655 0.14201 0.0916 0.14201-0.0139 0-0.0664-0.0526-0.11681-0.11681z"/>
   <path d="m111.78 186.48c0.0482-0.0193 0.10576-0.0169 0.12794 5e-3 0.0222 0.0222-0.0173 0.0379-0.0876 0.0351-0.0778-3e-3 -0.0936-0.019-0.0403-0.0403zm1.8022 0c0.0482-0.0193 0.10575-0.0169 0.12793 5e-3 0.0222 0.0222-0.0172 0.0379-0.0876 0.0351-0.0778-3e-3 -0.0936-0.019-0.0403-0.0403zm-15.044-5.845-0.19605-0.21694 0.21693 0.19605c0.11931 0.10783 0.21694 0.20545 0.21694 0.21694 0 0.0516-0.05508 6e-3 -0.23782-0.19605zm28.139 0.19605c0-0.0115 0.0976-0.10911 0.21694-0.21694l0.21693-0.19605-0.19604 0.21694c-0.18275 0.20221-0.23783 0.24761-0.23783 0.19605zm-14.934-5.3002c0.10147-0.0153 0.25165-0.0149 0.33375 9.1e-4 0.0821 0.0159-9.2e-4 0.0284-0.18448 0.0279-0.18356-5.4e-4 -0.25073-0.0135-0.14927-0.0288zm1.6687 0c0.10146-0.0153 0.25165-0.0149 0.33374 9.1e-4 0.0821 0.0159-9.2e-4 0.0284-0.18447 0.0279-0.18356-5.4e-4 -0.25073-0.0135-0.14927-0.0288zm-9.7439-8.1956c5.4e-4 -0.18356 0.0135-0.25073 0.0288-0.14927 0.0153 0.10147 0.0149 0.25165-9.1e-4 0.33375-0.0158 0.0821-0.0284-9.2e-4 -0.0279-0.18448zm18.089 0c5.3e-4 -0.18356 0.0135-0.25073 0.0288-0.14927 0.0153 0.10147 0.0149 0.25165-9.1e-4 0.33375-0.0158 0.0821-0.0284-9.2e-4 -0.0279-0.18448zm-29.05 0.0612c0.0032-0.0778 0.01902-0.0936 0.04033-0.0403 0.01928 0.0482 0.01691 0.10576-0.0053 0.12794-0.02218 0.0222-0.03796-0.0173-0.03506-0.0876zm39.983 0c3e-3 -0.0778 0.019-0.0936 0.0403-0.0403 0.0193 0.0482 0.0169 0.10576-5e-3 0.12794-0.0222 0.0222-0.0379-0.0173-0.0351-0.0876zm-29.022-1.7299c5.4e-4 -0.18356 0.0135-0.25073 0.0288-0.14927s0.0149 0.25165-9.1e-4 0.33374c-0.0158 0.0821-0.0284-9.2e-4 -0.0279-0.18447zm18.089 0c5.3e-4 -0.18356 0.0135-0.25073 0.0288-0.14927s0.0149 0.25165-9.1e-4 0.33374c-0.0158 0.0821-0.0284-9.2e-4 -0.0279-0.18447zm-29.05-0.0723c0.0032-0.0778 0.01902-0.0936 0.04033-0.0403 0.01928 0.0482 0.01691 0.10575-0.0053 0.12793-0.02218 0.0222-0.03796-0.0172-0.03506-0.0876zm39.983 0c3e-3 -0.0778 0.019-0.0936 0.0403-0.0403 0.0193 0.0482 0.0169 0.10575-5e-3 0.12793-0.0222 0.0222-0.0379-0.0172-0.0351-0.0876zm-20.947-8.1523c0.10147-0.0154 0.25165-0.0149 0.33375 9e-4 0.0821 0.0159-9.2e-4 0.0284-0.18448 0.0279-0.18356-5.3e-4 -0.25073-0.0135-0.14927-0.0288zm1.6687 0c0.10146-0.0154 0.25165-0.0149 0.33374 9e-4 0.0821 0.0159-9.2e-4 0.0284-0.18447 0.0279-0.18356-5.3e-4 -0.25073-0.0135-0.14927-0.0288zm-15.036-4.9124c0-0.0115 0.09762-0.10911 0.21693-0.21693l0.21693-0.19605-0.19605 0.21693c-0.18274 0.20222-0.23782 0.24762-0.23782 0.19605zm28.464-0.19605-0.19605-0.21693 0.21693 0.19605c0.11932 0.10782 0.21694 0.20544 0.21694 0.21693 0 0.0516-0.0551 6e-3 -0.23782-0.19605zm-15.06-5.8361c0.0482-0.0193 0.10576-0.0169 0.12794 5e-3 0.0222 0.0222-0.0173 0.038-0.0876 0.0351-0.0778-3e-3 -0.0936-0.019-0.0403-0.0403zm1.8022 0c0.0482-0.0193 0.10575-0.0169 0.12793 5e-3 0.0222 0.0222-0.0172 0.038-0.0876 0.0351-0.0778-3e-3 -0.0936-0.019-0.0403-0.0403z"/>
   <path d="m112.02 186.48c0.0649-0.0169 0.15506-0.0158 0.20025 2e-3 0.0452 0.0183-8e-3 0.0321-0.11808 0.0308-0.11014-1e-3 -0.14711-0.0163-0.0822-0.0332zm1.2682 0c0.065-0.0169 0.15506-0.0158 0.20025 2e-3 0.0452 0.0183-8e-3 0.0321-0.11808 0.0308-0.11014-1e-3 -0.14711-0.0163-0.0822-0.0332zm-20.564-19.344c0.0014-0.11013 0.01632-0.14711 0.03324-0.0822 0.01692 0.0649 0.01581 0.15505-0.0025 0.20024-0.01828 0.0452-0.03213-8e-3 -0.03077-0.11808zm39.983 0c1e-3 -0.11013 0.0163-0.14711 0.0332-0.0822 0.0169 0.0649 0.0158 0.15505-2e-3 0.20024-0.0183 0.0452-0.0321-8e-3 -0.0308-0.11808zm-39.983-1.2682c0.0014-0.11013 0.01632-0.14711 0.03324-0.0822 0.01692 0.0649 0.01581 0.15505-0.0025 0.20024-0.01828 0.0452-0.03213-8e-3 -0.03077-0.11808zm39.983 0c1e-3 -0.11013 0.0163-0.14711 0.0332-0.0822 0.0169 0.0649 0.0158 0.15505-2e-3 0.20024-0.0183 0.0452-0.0321-8e-3 -0.0308-0.11808zm-20.687-19.37c0.0649-0.0169 0.15506-0.0158 0.20025 2e-3 0.0452 0.0183-8e-3 0.0321-0.11808 0.0308-0.11014-1e-3 -0.14711-0.0163-0.0822-0.0332zm1.2682 0c0.065-0.0169 0.15506-0.0158 0.20025 2e-3 0.0452 0.0183-8e-3 0.0321-0.11808 0.0308-0.11014-1e-3 -0.14711-0.0163-0.0822-0.0332z"/>
   <path d="m112.35 186.48c0.0649-0.0169 0.15505-0.0158 0.20024 2e-3 0.0452 0.0183-8e-3 0.0321-0.11808 0.0308-0.11013-1e-3 -0.14711-0.0163-0.0822-0.0332zm0.60074 0c0.0649-0.0169 0.15505-0.0158 0.20025 2e-3 0.0452 0.0183-8e-3 0.0321-0.11809 0.0308-0.11013-1e-3 -0.14711-0.0163-0.0822-0.0332zm-1.2028-6.6764c0.10095-0.0153 0.26616-0.0153 0.36712 0 0.10095 0.0153 0.0184 0.0278-0.18356 0.0278-0.20192 0-0.28452-0.0125-0.18356-0.0278zm1.602 0c0.10096-0.0153 0.26616-0.0153 0.36712 0s0.0184 0.0278-0.18356 0.0278c-0.20191 0-0.28452-0.0125-0.18356-0.0278zm-13.202-0.76987-0.33124-0.35043 0.35044 0.33124c0.32562 0.30779 0.38104 0.36962 0.33123 0.36962-0.0106 0-0.16825-0.15769-0.35043-0.35043zm25.1 0.0167c0.1808-0.18356 0.34375-0.33375 0.3621-0.33375 0.0184 0-0.11455 0.15019-0.29535 0.33375s-0.34375 0.33374-0.3621 0.33374c-0.0184 0 0.11455-0.15018 0.29535-0.33374zm-13.432-0.1814c0.10147-0.0153 0.25165-0.0149 0.33375 9.1e-4 0.0821 0.0159-9.2e-4 0.0284-0.18448 0.0279-0.18356-5.4e-4 -0.25073-0.0135-0.14927-0.0288zm1.5352 0c0.10146-0.0153 0.25165-0.0149 0.33375 9.1e-4 0.0821 0.0159-9.3e-4 0.0284-0.18448 0.0279-0.18356-5.4e-4 -0.25073-0.0135-0.14927-0.0288zm-13.948-11.566c0-0.20192 0.01251-0.28452 0.02781-0.18356 0.01529 0.10095 0.01529 0.26616 0 0.36712-0.01529 0.10095-0.02781 0.0183-0.02781-0.18356zm26.633 0c0-0.20192 0.0125-0.28452 0.0278-0.18356 0.0153 0.10095 0.0153 0.26616 0 0.36712-0.0153 0.10095-0.0278 0.0183-0.0278-0.18356zm-25.699-0.0334c5.4e-4 -0.18356 0.0135-0.25073 0.0288-0.14927 0.0153 0.10147 0.0149 0.25165-9.1e-4 0.33375-0.0158 0.0821-0.0284-9.2e-4 -0.0279-0.18448zm24.764 0c5.3e-4 -0.18356 0.0135-0.25073 0.0288-0.14927 0.0153 0.10147 0.0149 0.25165-9.1e-4 0.33375-0.0159 0.0821-0.0284-9.2e-4 -0.0279-0.18448zm-32.379-0.46724c0.0014-0.11014 0.01632-0.14711 0.03324-0.0822 0.01692 0.065 0.01581 0.15506-0.0025 0.20025-0.01828 0.0452-0.03213-8e-3 -0.03077-0.11808zm39.983 0c1e-3 -0.11014 0.0163-0.14711 0.0332-0.0822 0.0169 0.065 0.0158 0.15506-2e-3 0.20025-0.0183 0.0452-0.0321-8e-3 -0.0308-0.11808zm-39.983-0.60074c0.0014-0.11014 0.01632-0.14711 0.03324-0.0822 0.01692 0.065 0.01581 0.15506-0.0025 0.20025-0.01828 0.0452-0.03213-8e-3 -0.03077-0.11808zm39.983 0c1e-3 -0.11014 0.0163-0.14711 0.0332-0.0822 0.0169 0.065 0.0158 0.15506-2e-3 0.20025-0.0183 0.0452-0.0321-8e-3 -0.0308-0.11808zm-33.301-0.50062c0-0.20192 0.01251-0.28452 0.02781-0.18356 0.01529 0.10096 0.01529 0.26616 0 0.36712s-0.02781 0.0184-0.02781-0.18356zm0.93357 0.0334c5.4e-4 -0.18356 0.0135-0.25073 0.0288-0.14927s0.0149 0.25165-9.1e-4 0.33374c-0.0158 0.0821-0.0284-9.2e-4 -0.0279-0.18447zm24.764 0c5.3e-4 -0.18356 0.0135-0.25073 0.0288-0.14927s0.0149 0.25165-9.1e-4 0.33374c-0.0159 0.0821-0.0284-9.2e-4 -0.0279-0.18447zm0.9354-0.0334c0-0.20192 0.0125-0.28452 0.0278-0.18356s0.0153 0.26616 0 0.36712-0.0278 0.0184-0.0278-0.18356zm-25.885-11.748c0.1808-0.18356 0.34374-0.33375 0.3621-0.33375 0.0184 0-0.11455 0.15019-0.29535 0.33375s-0.34375 0.33374-0.3621 0.33374c-0.01836 0 0.11455-0.15018 0.29535-0.33374zm25.095-0.0167-0.33123-0.35043 0.35043 0.33123c0.19274 0.18218 0.35043 0.33988 0.35043 0.35044 0 0.0498-0.0618-6e-3 -0.36963-0.33124zm-13.43 0.16904c0.10147-0.0153 0.25165-0.0149 0.33375 9e-4 0.0821 0.0159-9.2e-4 0.0284-0.18448 0.0279-0.18356-5.3e-4 -0.25073-0.0135-0.14927-0.0288zm1.5352 0c0.10146-0.0153 0.25165-0.0149 0.33375 9e-4 0.0821 0.0159-9.3e-4 0.0284-0.18448 0.0279-0.18356-5.3e-4 -0.25073-0.0135-0.14927-0.0288zm-1.6029-0.9344c0.10095-0.0153 0.26616-0.0153 0.36712 0 0.10095 0.0153 0.0184 0.0278-0.18356 0.0278-0.20192 0-0.28452-0.0125-0.18356-0.0278zm1.602 0c0.10096-0.0153 0.26616-0.0153 0.36712 0s0.0184 0.0278-0.18356 0.0278c-0.20191 0-0.28452-0.0125-0.18356-0.0278zm-0.99996-6.6734c0.0649-0.0169 0.15505-0.0158 0.20024 2e-3 0.0452 0.0183-8e-3 0.0321-0.11808 0.0308-0.11013-1e-3 -0.14711-0.0163-0.0822-0.0332zm0.60074 0c0.0649-0.0169 0.15505-0.0158 0.20025 2e-3 0.0452 0.0183-8e-3 0.0321-0.11809 0.0308-0.11013-1e-3 -0.14711-0.0163-0.0822-0.0332z"/>
   <path d="m112.1 186.47c-3.0662-0.0869-6.3556-0.99243-9.0409-2.4889-1.6793-0.93588-3.0424-1.9698-4.4424-3.3699-2.2052-2.2052-3.7287-4.6239-4.7409-7.5264-0.77494-2.2223-1.1057-4.1941-1.1057-6.591s0.33079-4.3687 1.1057-6.591c1.0121-2.9025 2.5356-5.3212 4.7409-7.5264 2.2052-2.2052 4.6239-3.7288 7.5264-4.7409 2.2223-0.77494 4.1941-1.1057 6.591-1.1057s4.3687 0.33079 6.591 1.1057c2.9025 1.0121 5.3212 2.5356 7.5264 4.7409 2.2052 2.2052 3.7287 4.6239 4.7408 7.5264 0.77494 2.2223 1.1057 4.1941 1.1057 6.591s-0.33079 4.3687-1.1057 6.591c-1.43 4.1008-4.159 7.6193-7.7958 10.051-3.4001 2.2732-7.5359 3.4523-11.697 3.3344zm-0.50062-3.5226v-1.2349h0.66749v-1.9357h-0.66749v-0.86774h0.66749v-3.4042h-0.66749v-0.93448h0.66749v-3.3374h-0.66749v-0.93449h0.66749v-3.3374h-3.3374v0.66749h-0.93448v-0.66749h-3.3374v0.66749h-0.93449v-0.66749h-3.4042v0.66749h-0.86774v-0.66749h-1.9357v0.66749h-2.4894l0.04321 0.55068c0.09642 1.2287 0.43726 2.78 0.91288 4.1551 2.1182 6.1238 7.5513 10.682 13.915 11.674 0.36712 0.0572 0.74258 0.1158 0.83436 0.13018 0.0918 0.0144 0.32457 0.0302 0.51731 0.0352l0.35043 9e-3zm4.1067 1.041c6.4006-1.106 11.674-5.5661 13.78-11.654 0.47563-1.375 0.81647-2.9264 0.91289-4.1551l0.0432-0.55068h-2.4894v-0.66749h-1.9357v0.66749h-0.86773v-0.66749h-3.4042v0.66749h-0.93449v-0.66749h-3.3374v0.66749h-0.93448v-0.66749h-3.3374v3.3374h0.66749v0.93449h-0.66749v3.3374h0.66749v0.93448h-0.66749v3.4042h0.66749v0.86774h-0.66749v1.9357h0.66749v2.4894l0.55068-0.0432c0.30287-0.0238 0.88183-0.10044 1.2866-0.17038zm-16.255-18.296v-0.33374h0.86774v0.66749h3.4042v-0.66749h0.93449v0.66749h3.3374v-0.66749h0.93448v0.66749h3.3374v-3.3374h-0.66749v-0.93449h0.66749v-3.3374h-0.66749v-0.93449h0.66749v-3.4042h-0.66749v-0.86774h0.66749v-1.9357h-0.66749v-2.4894l-0.55068 0.0432c-1.2287 0.0964-2.78 0.43726-4.1551 0.91289-5.0966 1.7629-9.1486 5.8149-10.912 10.912-0.47563 1.375-0.81646 2.9264-0.91288 4.1551l-0.04321 0.55068h2.4894v0.66749h1.9357zm17.088 0v-0.33374h0.93448v0.66749h3.3374v-0.66749h0.93449v0.66749h3.4042v-0.66749h0.86773v0.66749h1.9357v-0.66749h2.4894l-0.0432-0.55068c-0.0964-1.2287-0.43726-2.78-0.91289-4.1551-1.7629-5.0966-5.8149-9.1486-10.912-10.912-1.375-0.47563-2.9264-0.81647-4.1551-0.91289l-0.55068-0.0432v2.4894h-0.66749v1.9357h0.66749v0.86774h-0.66749v3.4042h0.66749v0.93449h-0.66749v3.3374h0.66749v0.93449h-0.66749v3.3374h3.3374z"/>
  </g>
  <g transform="matrix(.44122 0 0 .44122 66.658 96.724)" display="inline" fill="#fff" stroke-width=".15532">
   <path d="m92.836 166.58c0.0017-0.34172 0.03353-0.46322 0.07068-0.27001s0.03574 0.47279-0.0031 0.6213c-0.03888 0.1485-0.06927-0.01-0.06755-0.35129zm-6.6936-0.0777c0-0.21358 0.03525-0.30095 0.07834-0.19416s0.04309 0.28153 0 0.38831c-0.04309 0.10679-0.07834 0.0194-0.07834-0.19415zm11.78-13.261c0-0.0323 0.12232-0.15457 0.27182-0.27182 0.24635-0.1932 0.25185-0.18771 0.05864 0.0587-0.20291 0.25873-0.33046 0.34101-0.33046 0.21317zm1.0873-1.0873c0-0.0323 0.12232-0.15457 0.27182-0.27182 0.24635-0.1932 0.25185-0.18771 0.05865 0.0587-0.20291 0.25873-0.33046 0.34101-0.33046 0.21317zm13.476-5.4876c0.19321-0.0371 0.47279-0.0357 0.6213 3e-3 0.1485 0.0389-0.01 0.0693-0.35129 0.0676-0.34172-2e-3 -0.46322-0.0335-0.27001-0.0707zm0.16322-6.6752c0.11213-0.0449 0.24609-0.0393 0.29771 0.0123 0.0516 0.0516-0.0401 0.0883-0.20387 0.0816-0.18094-7e-3 -0.21775-0.0443-0.0938-0.0938z"/>
   <path d="m98.524 180.52c-0.1932-0.24636-0.18771-0.25185 0.05864-0.0587 0.1495 0.11725 0.27182 0.23957 0.27182 0.27182 0 0.12784-0.12755 0.0456-0.33046-0.21317zm-5.7027-13.086c0-0.21357 0.03526-0.30094 0.07834-0.19415 0.04309 0.10678 0.04309 0.28152 0 0.38831-0.04309 0.10678-0.07834 0.0194-0.07834-0.19416zm0-1.7086c0-0.21357 0.03526-0.30094 0.07834-0.19415 0.04309 0.10678 0.04309 0.28152 0 0.38831-0.04309 0.10678-0.07834 0.0194-0.07834-0.19416zm33.816-13.319c-0.1932-0.24635-0.18771-0.25185 0.0587-0.0586 0.1495 0.11724 0.27182 0.23956 0.27182 0.27181 0 0.12784-0.12755 0.0456-0.33047-0.21317zm-14.93-5.7334c0.10678-0.0431 0.28152-0.0431 0.38831 0 0.10678 0.0431 0.0194 0.0783-0.19416 0.0783-0.21357 0-0.30094-0.0353-0.19415-0.0783zm1.7086 0c0.10678-0.0431 0.28152-0.0431 0.38831 0 0.10678 0.0431 0.0194 0.0783-0.19416 0.0783-0.21357 0-0.30094-0.0353-0.19415-0.0783z"/>
   <path d="m137.92 196.44-9.0083-9.0477 9.0477 9.0083c8.4103 8.3737 9.1174 9.087 9.0083 9.087-0.0216 0-4.0931-4.0714-9.0476-9.0476zm4.6597-4.6597-9.0083-9.0477 9.0477 9.0083c8.4102 8.3737 9.1174 9.087 9.0083 9.087-0.0216 0-4.0931-4.0714-9.0477-9.0477zm-47.937-5.8247c-0.1932-0.24636-0.18771-0.25185 0.05864-0.0587 0.1495 0.11725 0.27182 0.23957 0.27182 0.27182 0 0.12784-0.12755 0.0456-0.33046-0.21317zm-1.3979-1.3979c-0.1932-0.24636-0.18771-0.25185 0.05864-0.0587 0.1495 0.11725 0.27182 0.23957 0.27182 0.27182 0 0.12784-0.12755 0.0456-0.33046-0.21317zm5.747-3.5725c-0.1932-0.24635-0.18771-0.25185 0.05864-0.0586 0.1495 0.11724 0.27182 0.23956 0.27182 0.27182 0 0.12783-0.12755 0.0455-0.33046-0.21318zm-0.93195-0.93195c-0.1932-0.24635-0.18771-0.25184 0.05864-0.0586 0.1495 0.11725 0.27182 0.23957 0.27182 0.27182 0 0.12784-0.12755 0.0456-0.33046-0.21318zm29.046-27.182c-0.19321-0.24635-0.18771-0.25184 0.0586-0.0586 0.25873 0.20291 0.34101 0.33046 0.21318 0.33046-0.0323 0-0.15458-0.12232-0.27182-0.27182zm-0.93195-0.93194c-0.1932-0.24636-0.18771-0.25185 0.0586-0.0587 0.25874 0.20291 0.34102 0.33046 0.21318 0.33046-0.0322 0-0.15457-0.12231-0.27182-0.27181zm5.9023-3.4171c-0.1932-0.24636-0.18771-0.25185 0.0587-0.0587 0.1495 0.11725 0.27182 0.23957 0.27182 0.27182 0 0.12784-0.12755 0.0456-0.33047-0.21317zm-1.3979-1.3979c-0.1932-0.24635-0.18771-0.25184 0.0587-0.0586 0.1495 0.11725 0.27182 0.23956 0.27182 0.27182 0 0.12784-0.12756 0.0456-0.33047-0.21318z"/>
   <path d="m111.24 192.96c0.10679-0.0431 0.28153-0.0431 0.38831 0 0.10679 0.0431 0.0194 0.0783-0.19415 0.0783-0.21357 0-0.30094-0.0352-0.19416-0.0783zm2.6502-3e-3c0.11212-0.0449 0.24609-0.0393 0.2977 0.0122 0.0516 0.0516-0.0401 0.0883-0.20386 0.0816-0.18094-7e-3 -0.21775-0.0442-0.0938-0.0938zm-1.9483-6.5252c0.15113-0.0394 0.36081-0.0368 0.46597 6e-3 0.10516 0.0426-0.0185 0.0748-0.27477 0.0716-0.25629-3e-3 -0.34233-0.038-0.1912-0.0774zm1.0873 0c0.15113-0.0394 0.36082-0.0368 0.46598 6e-3 0.10515 0.0426-0.0185 0.0748-0.27478 0.0716-0.25628-3e-3 -0.34232-0.038-0.1912-0.0774zm-19.079-1.1738-0.4562-0.50481 0.5048 0.45621c0.47055 0.42524 0.5762 0.5534 0.4562 0.5534-0.02673 0-0.25389-0.22716-0.5048-0.5048zm38.638-18.212c3e-3 -0.25628 0.038-0.34232 0.0774-0.1912 0.0394 0.15113 0.0368 0.36082-6e-3 0.46598-0.0425 0.10515-0.0748-0.0185-0.0716-0.27478zm0-0.93195c3e-3 -0.25628 0.038-0.34232 0.0774-0.1912 0.0394 0.15113 0.0368 0.36082-6e-3 0.46598-0.0425 0.10516-0.0748-0.0185-0.0716-0.27478zm6.5056-0.94489c7e-3 -0.18094 0.0443-0.21775 0.0938-0.0938 0.0449 0.11212 0.0394 0.24609-0.0123 0.29771-0.0516 0.0516-0.0883-0.0401-0.0816-0.20387zm-7.7106-17.345-0.45621-0.5048 0.50481 0.4562c0.47055 0.42525 0.5762 0.55341 0.4562 0.55341-0.0267 0-0.25389-0.22716-0.5048-0.50481z"/>
   <path d="m111.94 192.95c0.15113-0.0394 0.36081-0.0368 0.46597 6e-3 0.10516 0.0426-0.0185 0.0748-0.27477 0.0716-0.25629-3e-3 -0.34233-0.038-0.1912-0.0774zm1.2426 0c0.15112-0.0394 0.36081-0.0368 0.46597 6e-3 0.10516 0.0426-0.0185 0.0748-0.27477 0.0716-0.25629-3e-3 -0.34233-0.038-0.1912-0.0774zm13.083-11.852c0.15462-0.17086 0.31608-0.31065 0.35879-0.31065 0.0427 0-0.0489 0.13979-0.20347 0.31065-0.15462 0.17085-0.31608 0.31064-0.3588 0.31064-0.0427 0 0.0489-0.13979 0.20348-0.31064zm0.93194-0.93195c0.15463-0.17086 0.31609-0.31065 0.3588-0.31065 0.0427 0-0.0489 0.13979-0.20347 0.31065-0.15463 0.17086-0.31608 0.31065-0.3588 0.31065-0.0427 0 0.0489-0.13979 0.20347-0.31065zm11.918-12.892c0-0.299 0.032-0.42132 0.071-0.27182 0.0391 0.1495 0.0391 0.39414 0 0.54364s-0.071 0.0272-0.071-0.27182zm-6e-3 -1.4756c3e-3 -0.25628 0.038-0.34232 0.0773-0.1912 0.0394 0.15113 0.0368 0.36082-6e-3 0.46598-0.0426 0.10516-0.0748-0.0185-0.0716-0.27478zm-6.5416-0.32359c7e-3 -0.18094 0.0443-0.21775 0.0938-0.0938 0.0449 0.11212 0.0394 0.24609-0.0123 0.29771-0.0516 0.0516-0.0883-0.0401-0.0816-0.20387zm-38.61-17.616c0.50722-0.51258 0.95717-0.93195 0.99989-0.93195 0.04271 0-0.33734 0.41937-0.84456 0.93195-0.50722 0.51257-0.95717 0.93194-0.99988 0.93194-0.04272 0 0.33734-0.41937 0.84456-0.93194z"/>
   <path d="m148.09 206.07c-0.41676-0.12512-2.7057-2.3191-9.8078-9.4007l-9.2642-9.2374-1.56 1.0385c-4.9909 3.3226-10.481 4.7836-16.58 4.4121-3.4814-0.21207-6.5922-1.0609-9.9289-2.7093-7.5135-3.7118-12.8-10.825-14.302-19.245-0.37179-2.0846-0.3839-6.5474-0.0234-8.6224 1.3916-8.0098 6.2751-14.939 13.283-18.847 10.581-5.9002 23.829-3.8101 32.103 5.0647 1.8494 1.9838 3.1635 3.8764 4.3396 6.2506 1.6418 3.3139 2.4708 6.3487 2.7106 9.923 0.40085 5.9734-1.101 11.597-4.437 16.615l-1.0178 1.5309 9.2358 9.2642c9.672 9.7018 9.5972 9.6168 9.5972 10.895 0 0.74817-0.40351 1.6524-1.0065 2.2553-0.91442 0.91442-2.0675 1.1944-3.3426 0.81155zm-31.367-19.999c7.8429-1.5983 13.858-7.6232 15.546-15.572 0.43734-2.059 0.4722-5.7651 0.0719-7.6472-0.84623-3.9789-2.5022-7.2012-5.1278-9.9781-2.8313-2.9944-6.376-4.9759-10.512-5.8763-1.727-0.37596-5.0253-0.45572-6.9102-0.1671-8.6461 1.324-15.461 8.1253-16.781 16.747-0.2947 1.9257-0.21867 5.2055 0.16112 6.9501 1.7121 7.8649 7.5794 13.784 15.409 15.544 2.3562 0.52974 5.5433 0.52976 8.1426 6e-5z"/>
  </g>
 </g>
 <g transform="translate(-82.973 -133.11)">
  <g transform="matrix(.04098 .72179 -.72179 .04098 233.6 84.122)" fill="#fff" stroke-width=".095252">
   <path d="m116.2 215.07c-0.19143-0.0147-0.19163-0.0194-2e-3 -0.0508 0.11495-0.019 0.22093-0.0237 0.23551-0.0103 0.0578 0.053-0.0322 0.0765-0.23329 0.0611zm-2.1532 0.0943c-0.19144-0.0147-0.19164-0.0195-2e-3 -0.0508 0.11495-0.019 0.22093-0.0237 0.23551-0.0103 0.0578 0.053-0.0322 0.0765-0.23328 0.0611zm-2.6031-93.397-0.2806-0.011 0.27856-0.0354c0.26179-0.0333 0.35633-0.023 0.30484 0.0332-0.0122 0.0133-0.14847 0.0193-0.3028 0.0133zm-1.9535 0.0877c-0.19143-0.0147-0.19164-0.0195-2e-3 -0.0508 0.19893-0.0329 0.29069-0.0173 0.23773 0.0405-0.0134 0.0146-0.11934 0.0192-0.23551 0.0103z"/>
   <path d="m115.73 215.08-0.28061-0.011 0.27857-0.0354c0.26179-0.0333 0.35633-0.023 0.30484 0.0332-0.0122 0.0133-0.14847 0.0193-0.3028 0.0133zm-1.2112 0.053-0.2806-0.011 0.27857-0.0354c0.26179-0.0333 0.35632-0.023 0.30483 0.0332-0.0122 0.0133-0.14847 0.0193-0.3028 0.0133zm-3.5493-93.351c-0.19143-0.0147-0.19164-0.0194-2e-3 -0.0508 0.19893-0.0329 0.29069-0.0173 0.23773 0.0405-0.0134 0.0146-0.11934 0.0192-0.23551 0.0103zm-0.80272 0.0302-0.48512 7.6e-4 0.48333-0.0416c0.44987-0.0388 0.55559-0.0348 0.50645 0.0188-0.0108 0.0117-0.23785 0.0217-0.50466 0.0221z"/>
   <path d="m115.12 215.11-0.34914-7e-3 0.34722-0.0372c0.32452-0.0347 0.42247-0.0274 0.37201 0.0276-0.0115 0.0126-0.17807 0.0199-0.37009 0.0162zm24.915-73.564c-0.0787-0.0783-0.0801-0.11022-4e-3 -0.0813 0.0693 0.0262 0.12758 0.0842 0.12954 0.12887 2e-3 0.0447-0.0547 0.0233-0.12597-0.0476zm-52.253 56.896c-0.07873-0.0783-0.08013-0.11022-0.0036-0.0813 0.06929 0.0262 0.12758 0.0841 0.12954 0.12887 2e-3 0.0447-0.05473 0.0233-0.12598-0.0476zm-5.2177 5.5544c-0.07873-0.0783-0.08013-0.11022-0.0036-0.0813 0.06929 0.0262 0.12758 0.0841 0.12954 0.12887 2e-3 0.0447-0.05473 0.0233-0.12598-0.0476zm62.898-68.856c-0.0966-0.0885-0.12148-0.14061-0.0553-0.11586 0.0661 0.0247 0.14515 0.0971 0.17559 0.16086 0.0304 0.0637-0.0237 0.0435-0.12025-0.045zm-66.083 65.929c-0.09657-0.0885-0.12148-0.1406-0.05534-0.11585 0.06614 0.0248 0.14515 0.0971 0.17559 0.16086 0.03044 0.0637-0.02367 0.0435-0.12025-0.045zm62.946-68.792c-0.0787-0.0783-0.0801-0.11021-4e-3 -0.0813 0.0693 0.0262 0.12758 0.0841 0.12954 0.12886 2e-3 0.0447-0.0547 0.0233-0.12598-0.0476zm-58.009 62.98c-0.09657-0.0885-0.12148-0.1406-0.05534-0.11585 0.06614 0.0247 0.14515 0.0971 0.17559 0.16086 0.03044 0.0637-0.02367 0.0435-0.12025-0.045z"/>
   <path d="m138.28 139.8c-0.0787-0.0783-0.0801-0.11021-4e-3 -0.0813 0.0693 0.0262 0.12758 0.0841 0.12954 0.12886 2e-3 0.0447-0.0547 0.0233-0.12598-0.0476zm-28.293-10.279c-0.33012 0.0114-0.58575 5e-3 -0.56805-0.0145 0.0177-0.0193 0.30227-0.0444 0.63239-0.0558 0.33013-0.0113 0.58575-5e-3 0.56806 0.0145-0.0177 0.0193-0.30228 0.0444-0.6324 0.0558z"/>
   <path d="m114.24 207.26-0.55285 4e-3 0.5511-0.0442c0.3031-0.0243 0.56048-0.0356 0.57195-0.025 0.0531 0.0487-0.0561 0.0611-0.5702 0.065zm-32.026-3.5843c-0.07873-0.0783-0.08013-0.11022-0.0036-0.0813 0.06929 0.0262 0.12758 0.0841 0.12954 0.12887 2e-3 0.0447-0.05473 0.0233-0.12598-0.0476zm62.852-68.888c-0.0787-0.0783-0.0801-0.11022-4e-3 -0.0813 0.0693 0.0262 0.12758 0.0841 0.12954 0.12887 2e-3 0.0447-0.0547 0.0233-0.12598-0.0476zm-6.3873 5.3622c-0.17383-0.15925-0.23239-0.2381-0.13014-0.17521 0.10225 0.0629 0.24448 0.19318 0.31606 0.28954 0.0716 0.0964-0.0121 0.0449-0.18592-0.11433zm-52.646 56.819c-0.07873-0.0783-0.08013-0.11021-0.0036-0.0813 0.06929 0.0262 0.12758 0.0842 0.12954 0.12887 2e-3 0.0447-0.05473 0.0233-0.12598-0.0476zm51.907-57.494c-0.1538-0.14234-0.19556-0.20705-0.0928-0.14381 0.10276 0.0632 0.2286 0.17969 0.27964 0.25879 0.0511 0.0791-0.033 0.0273-0.18683-0.11498zm-58.184 61.948c-0.07873-0.0783-0.08013-0.11022-0.0036-0.0813 0.06929 0.0262 0.12758 0.0841 0.12954 0.12887 2e-3 0.0447-0.05473 0.0233-0.12598-0.0476zm62.922-68.824c-0.0787-0.0783-0.0801-0.11021-4e-3 -0.0813 0.0693 0.0262 0.12758 0.0841 0.12954 0.12887 2e-3 0.0447-0.0547 0.0233-0.12598-0.0476zm-33.53-3.0465c-0.19144-0.0147-0.19164-0.0195-2e-3 -0.0508 0.11495-0.019 0.22093-0.0237 0.23551-0.0103 0.0578 0.053-0.0322 0.0765-0.23328 0.0611z"/>
   <path d="m115.05 207.23-0.2806-0.011 0.27857-0.0354c0.15321-0.0195 0.28947-0.0255 0.3028-0.0133 0.0562 0.0515-0.0371 0.07-0.30077 0.0597zm-33.041-3.7453c-0.07873-0.0783-0.08013-0.11022-0.0036-0.0813 0.06929 0.0262 0.12758 0.0842 0.12954 0.12887 2e-3 0.0447-0.05473 0.0233-0.12598-0.0476zm57.043-62.971c-0.0787-0.0783-0.0801-0.11022-4e-3 -0.0813 0.0693 0.0262 0.12758 0.0841 0.12954 0.12887 2e-3 0.0447-0.0547 0.0233-0.12598-0.0476zm-52.645 56.772c-0.1538-0.14233-0.19557-0.20705-0.09281-0.14381 0.10276 0.0632 0.22859 0.17969 0.27964 0.25879 0.05105 0.0791-0.03303 0.0274-0.18683-0.11498zm-0.73616-0.67702c-0.17383-0.15925-0.2324-0.2381-0.13014-0.17521 0.10225 0.0629 0.24448 0.19318 0.31606 0.28954 0.07158 0.0964-0.01208 0.0449-0.18591-0.11433zm51.907-57.446c-0.0787-0.0783-0.0801-0.11022-4e-3 -0.0813 0.0693 0.0262 0.12758 0.0841 0.12954 0.12887 2e-3 0.0447-0.0547 0.0233-0.12598-0.0476zm5.3169-6.3678c-0.0787-0.0783-0.0801-0.11021-4e-3 -0.0813 0.0693 0.0262 0.12758 0.0842 0.12954 0.12887 2e-3 0.0447-0.0547 0.0233-0.12597-0.0476zm-31.857-3.322c-0.19143-0.0147-0.19164-0.0195-2e-3 -0.0508 0.19894-0.0329 0.2907-0.0173 0.23774 0.0405-0.0134 0.0146-0.11934 0.0192-0.23551 0.0103z"/>
   <path d="m141.04 205.53c-8.3575 6.5194-19.126 9.8846-30.071 9.3973-6.8073-0.30309-13.346-2.0467-19.761-5.2694-1.7106-0.85937-5.4803-3.2196-6.8625-4.2966-3.0527-2.3787-5.4444-4.7213-7.862-7.7006-2.9374-3.6199-5.4928-7.9315-7.1006-11.981-0.16327-0.41117-0.34962-0.75753-0.4141-0.76969-0.06449-0.0122-2.7056 0.14279-5.8691 0.34432-3.1635 0.20154-5.758 0.33913-5.7654 0.30573-0.01401-0.0627 13.931-27.688 13.983-27.699 0.05263-0.0114 16.692 25.725 16.662 25.772-0.01604 0.0253-2.4905 0.20193-5.4989 0.39251s-5.4984 0.36044-5.5335 0.37746c-0.09006 0.0438 0.95966 2.1522 1.7592 3.5335 3.9215 6.7749 10.012 12.295 17.26 15.643 11.941 5.516 25.909 4.7553 36.918-2.0106 1.3576-0.8343 3.5257-2.3454 3.9609-2.7606 0.10739-0.10252 0.21633-0.17295 0.24207-0.15662 0.0258 0.0163 1.1834 1.3434 2.5726 2.949 1.9513 2.2553 2.5066 2.9475 2.4412 3.0436-0.0465 0.0684-0.52377 0.46695-1.0606 0.88567zm13.039-26.803c-0.0254-0.0442-3.7857-5.8486-8.3564-12.898-4.5707-7.0499-8.2836-12.839-8.2511-12.865 0.0326-0.0257 2.2774-0.14239 4.9885-0.25936 2.7111-0.11695 4.9399-0.23889 4.953-0.27098 0.0494-0.12133-1.2907-2.6807-2.1361-4.0797-5.5785-9.2314-14.659-15.663-25.294-17.917-9.9166-2.1012-20.382-0.29002-28.776 4.9805-1.1571 0.7265-3.2989 2.2436-3.6822 2.6084-0.13949 0.13272-0.23466 0.15528-0.30922 0.0733-1.4139-1.5545-5.0084-5.8179-4.9641-5.8878 0.26951-0.42477 5.2567-3.5547 7.5035-4.7092 12.503-6.4243 26.324-7.56 38.63-3.1742 7.978 2.8434 14.759 7.7268 20.213 14.556 2.8596 3.5807 5.4355 8.0502 7.0326 12.203l0.39543 1.0281 11.668-0.50888-0.0853 0.26689c-0.0469 0.14677-3.0103 6.0763-6.5853 13.177-3.575 7.1004-6.5894 13.101-6.6986 13.334s-0.21925 0.38807-0.24459 0.34378z"/>
  </g>
 </g>
 <g transform="translate(-82.973 -133.11)">
  <text transform="scale(.98183 1.0185)" x="98.61969" y="180.9079" fill="#ffffff" font-family="sans-serif" font-size="32.127px" stroke-width=".80318" style="line-height:1.25" xml:space="preserve"><tspan x="98.61969" y="180.9079" fill="#ffffff" font-family="Roboto" font-weight="bold" stroke-width=".80318">SC</tspan></text>
 </g>
</svg>
